<svg id="phone1" xmlns="http://www.w3.org/2000/svg" width="86.119" height="85.642" viewBox="0 0 86.119 85.642">
  <path id="Trazado_50" data-name="Trazado 50" d="M5586.047,531.356v12.423h1.023q5.948,0,11.9,0a6.352,6.352,0,0,1,6.745,6.685q.041,5.445,0,10.89a6.345,6.345,0,0,1-6.66,6.686c-5.52.032-11.041.011-16.562,0a3.211,3.211,0,0,1-1.443-.143c-1.7-.923-3.485-.455-5.241-.456q-16.241-.007-32.482-.01a13.4,13.4,0,0,1-2.545-.2,9.482,9.482,0,0,1-7.655-8.945c-.022-.487-.025-.975-.025-1.463q0-24.937,0-49.875V505.7c-.413-.018-.738-.046-1.062-.047-1.952,0-3.9.016-5.856-.005a5.813,5.813,0,0,1-6.06-6.046q-.039-5.492,0-10.982a5.783,5.783,0,0,1,6.035-6.063c5.093-.039,10.21-.322,15.276.053,11.512.854,23.025.171,34.534.4,5.89.116,10.01,4.143,10.037,10.038.016,3.508,0,7.016,0,10.524v1.126a4.211,4.211,0,0,0,.7-.322c1.254-.914,2.507-1.833,3.744-2.772a3.9,3.9,0,0,0,1.424-2.033,3.934,3.934,0,0,1,4.417-2.608,4.1,4.1,0,0,1,3.453,4.118c.024,3.02-.014,6.04-.025,9.06,0,.363,0,.727,0,1.144.306.1.584.2.867.279a7.752,7.752,0,0,1-.1,14.945c-.732.193-.882.491-.873,1.173.032,2.409.011,4.819-.006,7.228a4.075,4.075,0,0,1-8.064,1,1.157,1.157,0,0,0-.192-.5A24.632,24.632,0,0,0,5586.047,531.356Zm-50.232-25.706v48.984h40.12c0-1.712-.075-3.357.018-4.994a6.162,6.162,0,0,1,4.97-5.7,23.062,23.062,0,0,1,2.353-.248V529.913a32.91,32.91,0,0,0-14.733-2.579c.073.336.11.576.177.807a52.891,52.891,0,0,0,4.637,11.3,7.824,7.824,0,0,1,.969,4.93,5.6,5.6,0,0,1-5.364,5.155,6.54,6.54,0,0,1-5.81-3.689c-2.116-3.773-2.825-7.963-3.241-12.187-.2-2.077-.035-4.192-.035-6.255-.345-.1-.485-.157-.631-.189a5.809,5.809,0,0,1-4.995-6.137c0-2.1.005-4.209.039-6.313a7.978,7.978,0,0,1,.206-1.811,5.6,5.6,0,0,1,5.356-4.326c3.75-.068,7.5-.011,11.253-.046a31.207,31.207,0,0,0,11.439-2.107,1.012,1.012,0,0,0,.781-1.114c-.037-3.416-.017-6.832-.02-10.248,0-.259-.039-.517-.056-.736h-35.789v.986c0,1.433.013,2.867,0,4.3a5.813,5.813,0,0,1-5.934,5.989C5539.637,505.681,5537.75,505.65,5535.815,505.65Zm-2.074-2.684c2.53,0,5.06.006,7.589,0a3.178,3.178,0,0,0,3.47-3.383q.044-5.486,0-10.972a3.2,3.2,0,0,0-3.476-3.389q-7.543-.012-15.086,0a3.221,3.221,0,0,0-3.474,3.485q-.023,5.4,0,10.79a3.2,3.2,0,0,0,3.48,3.469C5528.744,502.973,5531.242,502.967,5533.741,502.966Zm44.82,47.617c0,3.722-.008,7.254,0,10.787a3.735,3.735,0,0,0,4,4.006q8.228.015,16.454,0a3.752,3.752,0,0,0,4.034-4.066q.013-4.936,0-9.873c0-.229-.022-.459-.042-.8-.349.212-.607.356-.852.519q-4.826,3.218-9.649,6.44c-1.472.981-1.94.976-3.382.012q-4.783-3.2-9.572-6.394C5579.282,551.031,5579,550.862,5578.561,550.583Zm-8.169-25.971V511.4a.815.815,0,0,0-.249-.09c-3.384-.023-6.768-.091-10.151-.039a3.059,3.059,0,0,0-3.03,3.244q-.037,3.429-.013,6.861a3.078,3.078,0,0,0,3.229,3.213c1.8.023,3.6.022,5.4.027C5567.155,524.615,5568.735,524.612,5570.391,524.612Zm23.871-6.634h-.14q0,8.188,0,16.375a4.531,4.531,0,0,0,.028.912,1.33,1.33,0,0,0,1.389,1.2,1.287,1.287,0,0,0,1.36-1.212,6.733,6.733,0,0,0,.043-1q.054-16.329.1-32.658a6.178,6.178,0,0,0-.016-.731,1.351,1.351,0,0,0-1.438-1.235c-.879.024-1.327.589-1.328,1.707Q5594.258,509.653,5594.262,517.978Zm-34.677,40.066a2.454,2.454,0,0,0-2.536,2.426A2.481,2.481,0,0,0,5559.49,563a2.521,2.521,0,0,0,2.551-2.439A2.487,2.487,0,0,0,5559.585,558.044ZM5559.473,490v0c.824,0,1.649.037,2.47-.01a1.2,1.2,0,0,0,1.228-1.311,1.176,1.176,0,0,0-1.244-1.289c-1.585-.034-3.172-.028-4.758,0a1.233,1.233,0,0,0-1.292,1.266,1.284,1.284,0,0,0,1.309,1.346C5557.947,490.023,5558.71,490,5559.473,490Z" transform="translate(-5520.101 -482.418)" fill="#ff6011"/>
  <path id="Trazado_51" data-name="Trazado 51" d="M5530.565,494.661c0-.7-.025-1.4.005-2.1a2.228,2.228,0,0,1,3.444-1.942c1.217.693,2.409,1.434,3.577,2.207a2.206,2.206,0,0,1,.01,3.852c-1.167.775-2.352,1.53-3.576,2.207a2.234,2.234,0,0,1-3.458-2.025C5530.545,496.126,5530.564,495.393,5530.565,494.661Z" transform="translate(-5520.967 -483.068)" fill="#ff6011"/>
</svg>
