<svg id="iOS" xmlns="http://www.w3.org/2000/svg" width="65.19" height="79.849" viewBox="0 0 65.19 79.849">
  <path id="Trazado_103" data-name="Trazado 103" d="M3094.943,563.849h-1.715a13.028,13.028,0,0,1-4.689-1.966,26.425,26.425,0,0,1-6.965-7.385,51.265,51.265,0,0,1-8.721-26.278c-.389-7.655,1.85-14.357,7.487-19.732a16.442,16.442,0,0,1,15.631-4.48,35.2,35.2,0,0,1,5.771,2.087,9,9,0,0,0,6.892.325c1.139-.432,2.3-.82,3.406-1.33a18.868,18.868,0,0,1,11.847-1.449c4.9.962,8.571,3.745,11.679,7.511-5.474,4.159-9.3,9.175-8.421,16.393A18.2,18.2,0,0,0,3138,542.669c-.943,2.107-1.821,4.212-2.813,6.261-2.257,4.66-4.832,9.074-9.187,12.181-1.615,1.152-3.153,2.367-5.163,2.738h-1.4c-2.405-.788-4.85-1.472-7.2-2.392a12.8,12.8,0,0,0-9.039-.341C3100.446,562.039,3097.693,562.939,3094.943,563.849Z" transform="translate(-3072.81 -484)" fill="#ff6011"/>
  <path id="Trazado_104" data-name="Trazado 104" d="M3120.837,484c.058,1.061.16,2.121.167,3.182.038,5.981-2.8,10.141-8.087,12.77a23.808,23.808,0,0,1-6.856,2.228c-.148.024-.3.027-.537.047-.119-5.659,1.153-10.651,6.008-14.15a24.707,24.707,0,0,1,8.506-3.916,1.739,1.739,0,0,0,.331-.161Z" transform="translate(-3072.81 -484)" fill="#ff6011"/>
</svg>
