<svg id="logo" xmlns="http://www.w3.org/2000/svg" width="128.222" height="52.506" viewBox="0 0 128.222 52.506">
  <g id="Grupo_48" data-name="Grupo 48" transform="translate(-575.889 -59.495)">
    <path id="Trazado_148" data-name="Trazado 148" d="M589.885,111.1h0a14,14,0,0,1-9.9-23.89l4.8-4.8a3.993,3.993,0,0,1,5.646,5.648l-4.8,4.8a6.009,6.009,0,0,0,4.25,10.257h0a5.968,5.968,0,0,0,4.247-1.759l7.073-7.073a3.993,3.993,0,0,1,5.647,5.646L599.779,107A13.9,13.9,0,0,1,589.885,111.1Z" fill="#ff6011"/>
  </g>
  <path id="Trazado_149" data-name="Trazado 149" d="M633.075,80.658h-7.919V60.565h7.416a9.383,9.383,0,0,1,5.393,1.4,4.85,4.85,0,0,1,2.054,4.3,4.941,4.941,0,0,1-2.01,3.605,6.635,6.635,0,0,1,2.113,2.039,5,5,0,0,1,.783,2.777,5.061,5.061,0,0,1-2.186,4.477A9.813,9.813,0,0,1,633.075,80.658Zm-.887-16.37h-2.422v4.166h2.008a5.3,5.3,0,0,0,2.468-.5,1.612,1.612,0,0,0,.96-1.507Q635.2,64.288,632.188,64.288Zm.916,7.86h-3.338v4.816h3.22a3.854,3.854,0,0,0,2.275-.606,1.957,1.957,0,0,0,.857-1.7,2.253,2.253,0,0,0-.812-1.847A3.378,3.378,0,0,0,633.1,72.148Z" transform="translate(-575.889 -59.495)" fill="#323232"/>
  <path id="Trazado_150" data-name="Trazado 150" d="M664.161,70.47a10.94,10.94,0,0,1-.762,4.109,9.709,9.709,0,0,1-5.478,5.506,12.155,12.155,0,0,1-8.658,0,9.724,9.724,0,0,1-5.5-5.506,11.474,11.474,0,0,1,0-8.218,9.773,9.773,0,0,1,2.153-3.3,9.94,9.94,0,0,1,3.347-2.195,11.385,11.385,0,0,1,4.332-.8,11.266,11.266,0,0,1,4.326.8,9.992,9.992,0,0,1,3.333,2.2,9.828,9.828,0,0,1,2.145,3.3A10.9,10.9,0,0,1,664.161,70.47Zm-4.836,0a8.792,8.792,0,0,0-.391-2.718,5.764,5.764,0,0,0-1.125-2.048,4.851,4.851,0,0,0-1.8-1.286,6.2,6.2,0,0,0-2.418-.447,6.287,6.287,0,0,0-2.438.447,4.836,4.836,0,0,0-1.8,1.286,5.747,5.747,0,0,0-1.125,2.048,9.691,9.691,0,0,0,0,5.45,5.756,5.756,0,0,0,1.125,2.048,4.787,4.787,0,0,0,1.8,1.279,6.363,6.363,0,0,0,2.438.439,6.276,6.276,0,0,0,2.418-.439,4.8,4.8,0,0,0,1.8-1.279,5.773,5.773,0,0,0,1.125-2.048A8.848,8.848,0,0,0,659.325,70.47Z" transform="translate(-575.889 -59.495)" fill="#323232"/>
  <path id="Trazado_151" data-name="Trazado 151" d="M644.382,98.421a10.94,10.94,0,0,1-.762,4.109,9.71,9.71,0,0,1-5.478,5.506,12.155,12.155,0,0,1-8.658,0,9.718,9.718,0,0,1-5.5-5.506,11.457,11.457,0,0,1,0-8.217,9.75,9.75,0,0,1,2.152-3.3,9.947,9.947,0,0,1,3.347-2.194,11.387,11.387,0,0,1,4.333-.8,11.245,11.245,0,0,1,4.325.8,9.968,9.968,0,0,1,3.333,2.2,9.838,9.838,0,0,1,2.145,3.3A10.909,10.909,0,0,1,644.382,98.421Zm-4.835,0a8.8,8.8,0,0,0-.392-2.718,5.751,5.751,0,0,0-1.125-2.047,4.851,4.851,0,0,0-1.8-1.286,6.182,6.182,0,0,0-2.417-.447,6.27,6.27,0,0,0-2.439.447,4.836,4.836,0,0,0-1.8,1.286A5.749,5.749,0,0,0,628.45,95.7a9.695,9.695,0,0,0,0,5.451,5.766,5.766,0,0,0,1.125,2.047,4.776,4.776,0,0,0,1.8,1.279,6.364,6.364,0,0,0,2.439.44,6.275,6.275,0,0,0,2.417-.44,4.79,4.79,0,0,0,1.8-1.279,5.768,5.768,0,0,0,1.125-2.047A8.858,8.858,0,0,0,639.547,98.421Z" transform="translate(-575.889 -59.495)" fill="#323232"/>
  <path id="Trazado_152" data-name="Trazado 152" d="M658.991,100.572h-6.766v8.037h-4.61V88.546h12.233l.532,3.6h-8.155v4.788h6.234Z" transform="translate(-575.889 -59.495)" fill="#323232"/>
  <path id="Trazado_153" data-name="Trazado 153" d="M690.076,107.339l1.329-3.606a13.336,13.336,0,0,0,2.349.932,8.7,8.7,0,0,0,2.5.428,4.184,4.184,0,0,0,2.276-.517,1.573,1.573,0,0,0,.8-1.374,1.33,1.33,0,0,0-.6-1.035,19.94,19.94,0,0,0-1.965-1.27q-.3-.147-.887-.5-2.01-1.21-3.147-2.009a8.462,8.462,0,0,1-2.009-2.01,4.541,4.541,0,0,1-.872-2.718,5.058,5.058,0,0,1,.9-2.852,5.836,5.836,0,0,1,2.5-1.979,9.3,9.3,0,0,1,3.812-.724,11.546,11.546,0,0,1,3.044.428,10.934,10.934,0,0,1,2.747,1.138l-1.418,3.368a18.243,18.243,0,0,0-2.334-.827,7.891,7.891,0,0,0-1.98-.236,3.193,3.193,0,0,0-1.788.457,1.434,1.434,0,0,0-.694,1.257,1.454,1.454,0,0,0,.576,1.137,11.179,11.179,0,0,0,1.847,1.167,6.879,6.879,0,0,1,.975.532q2.127,1.242,3.25,2.024a8.217,8.217,0,0,1,1.98,1.98,4.579,4.579,0,0,1,.857,2.733,4.954,4.954,0,0,1-.93,2.955,6.125,6.125,0,0,1-2.69,2.039,10.679,10.679,0,0,1-4.151.739,13.219,13.219,0,0,1-3.3-.5A11.357,11.357,0,0,1,690.076,107.339Z" transform="translate(-575.889 -59.495)" fill="#323232"/>
  <g id="Grupo_49" data-name="Grupo 49" transform="translate(-575.889 -59.495)">
    <rect id="Rectángulo_55" data-name="Rectángulo 55" width="15.849" height="0.4" transform="translate(647.851 75.688) rotate(-43.82)" fill="#323232"/>
  </g>
  <path id="Trazado_154" data-name="Trazado 154" d="M606.244,81.143a6.018,6.018,0,0,1-.156,8.335l-7.706,7.706,5.647,5.647,7.706-7.707a14.013,14.013,0,0,0,.158-19.63Z" transform="translate(-575.889 -59.495)" fill="#ff6011"/>
  <path id="Trazado_155" data-name="Trazado 155" d="M585.756,69.234a6.017,6.017,0,0,1,8.5,0l2.142,2.143,5.647-5.647L599.9,63.587A13.994,13.994,0,1,0,580.11,83.378L608.733,112l5.647-5.647L585.758,77.732A6.019,6.019,0,0,1,585.756,69.234Z" transform="translate(-575.889 -59.495)" fill="#ff6011"/>
  <path id="Trazado_156" data-name="Trazado 156" d="M697.732,60.5v8.3h-8.273V60.5h-4.752V80.658h4.752V72.049h8.273v8.609h4.752V60.5Z" transform="translate(-575.889 -59.495)" fill="#323232"/>
  <path id="Trazado_157" data-name="Trazado 157" d="M665.155,60.565V64.2h6V80.658h4.639V64.2h6.648l-.562-3.634Z" transform="translate(-575.889 -59.495)" fill="#323232"/>
  <path id="Trazado_158" data-name="Trazado 158" d="M682.334,88.53v12.308a4.38,4.38,0,0,1-1.093,3.206,4.439,4.439,0,0,1-5.851.015,4.368,4.368,0,0,1-1.093-3.221V88.53h-4.639l.029,12.574a7.952,7.952,0,0,0,1.064,4.167,7.128,7.128,0,0,0,3.029,2.747,11.026,11.026,0,0,0,9.071,0,7.238,7.238,0,0,0,3.044-2.747,7.875,7.875,0,0,0,1.078-4.167V88.53Z" transform="translate(-575.889 -59.495)" fill="#323232"/>
</svg>
