<svg id="phone3" xmlns="http://www.w3.org/2000/svg" width="47.57" height="87.219" viewBox="0 0 47.57 87.219">
  <g id="Grupo_14" data-name="Grupo 14">
    <path id="Trazado_55" data-name="Trazado 55" d="M6152.523,560.114h-31.346a1.1,1.1,0,0,0-.23-.109c-5.169-1.116-7.947-4.542-7.948-9.811q0-5.45,0-10.9,0-28.4,0-56.8a9.259,9.259,0,0,1,9.548-9.583c9.511-.014,19.022-.033,28.533.03a9.877,9.877,0,0,1,3.875.775c3.841,1.714,5.613,4.816,5.61,9.009q-.018,33.766-.006,67.532c0,.312,0,.625-.016.936a9.257,9.257,0,0,1-6.567,8.524C6153.5,559.858,6153.008,559.982,6152.523,560.114Zm-15.758-75.308c1.874,0,3.747.006,5.62,0,1.414-.006,2.291-.753,2.314-1.946.023-1.235-.845-2-2.315-2.02-.539-.008-1.078,0-1.618,0-3.122,0-6.245-.006-9.366.007a4.139,4.139,0,0,0-1.335.177,1.92,1.92,0,0,0-1.177,2.134,2,2,0,0,0,2,1.642C6132.848,484.825,6134.807,484.8,6136.765,484.806Zm-.02,67.365a3.952,3.952,0,1,0-3.926-3.973A3.964,3.964,0,0,0,6136.745,552.171Z" transform="translate(-6112.998 -472.895)" fill="#ff6011"/>
  </g>
  <g id="Grupo_15" data-name="Grupo 15" transform="translate(14.318 40.997)">
    <path id="Trazado_56" data-name="Trazado 56" d="M6128.611,520.118a2.435,2.435,0,0,1,.2-.988,2.484,2.484,0,0,1,.544-.8,2.7,2.7,0,0,1,2.866-.538,2.675,2.675,0,0,1,.824.538,2.425,2.425,0,0,1,.553.8,2.452,2.452,0,0,1,.2.988,2.5,2.5,0,0,1-.2.994,2.412,2.412,0,0,1-.553.8,2.573,2.573,0,0,1-.824.53,2.677,2.677,0,0,1-1.017.191,2.712,2.712,0,0,1-1.031-.191,2.508,2.508,0,0,1-.818-.53,2.511,2.511,0,0,1-.744-1.8Z" transform="translate(-6128.611 -517.599)" fill="#fff"/>
    <path id="Trazado_57" data-name="Trazado 57" d="M6136.193,520.118a2.444,2.444,0,0,1,.2-.988,2.492,2.492,0,0,1,.544-.8,2.7,2.7,0,0,1,2.866-.538,2.681,2.681,0,0,1,.824.538,2.434,2.434,0,0,1,.752,1.783,2.51,2.51,0,0,1-.2.994,2.426,2.426,0,0,1-.553.8,2.578,2.578,0,0,1-.824.53,2.677,2.677,0,0,1-1.017.191,2.71,2.71,0,0,1-1.031-.191,2.5,2.5,0,0,1-.818-.53,2.511,2.511,0,0,1-.744-1.8Z" transform="translate(-6129.24 -517.599)" fill="#fff"/>
    <path id="Trazado_58" data-name="Trazado 58" d="M6143.776,520.118a2.451,2.451,0,0,1,.2-.988,2.5,2.5,0,0,1,.545-.8,2.6,2.6,0,0,1,.817-.538,2.637,2.637,0,0,1,1.032-.2,2.592,2.592,0,0,1,1.016.2,2.68,2.68,0,0,1,.825.538,2.438,2.438,0,0,1,.751,1.783,2.493,2.493,0,0,1-.2.994,2.417,2.417,0,0,1-.552.8,2.577,2.577,0,0,1-.825.53,2.672,2.672,0,0,1-1.016.191,2.719,2.719,0,0,1-1.032-.191,2.486,2.486,0,0,1-1.561-2.328Z" transform="translate(-6129.868 -517.599)" fill="#fff"/>
  </g>
</svg>
