<svg id="phone2" xmlns="http://www.w3.org/2000/svg" width="48.505" height="85.562" viewBox="0 0 48.505 85.562">
  <g id="Grupo_10" data-name="Grupo 10">
    <path id="Trazado_52" data-name="Trazado 52" d="M5824.494,570.381a7.414,7.414,0,0,1-3.557-1.876,6.547,6.547,0,0,1-1.793-4.711q.01-5.138,0-10.275,0-30.952,0-61.9c0-2.738,1.008-4.909,3.542-6.111a7.008,7.008,0,0,1,2.893-.649q17.8-.063,35.594-.02c3.849.007,6.437,2.731,6.438,6.692q.006,27.109,0,54.218c0,5.68-.088,11.364.032,17.041.074,3.424-1.052,6.5-5.378,7.6Zm38.386-16.244V495.408h-38.987v58.729Zm-27.064,9.542h15.078v-4.566h-15.078Zm-.77-72.581h16.634v-1.7h-16.634Zm22.191-2.35a1.569,1.569,0,0,0-1.524,1.627,1.537,1.537,0,0,0,1.635,1.5,1.563,1.563,0,0,0,1.5-1.57A1.59,1.59,0,0,0,5857.237,488.749Z" transform="translate(-5819.142 -484.82)" fill="#ff6011"/>
  </g>
  <g id="Grupo_11" data-name="Grupo 11" transform="translate(11.37 39.821)">
    <path id="Trazado_53" data-name="Trazado 53" d="M5836.525,546.01a9.134,9.134,0,0,1-2.378-.393,6.866,6.866,0,0,1-2-.952l.811-1.58a1.029,1.029,0,0,1,.3-.341.931.931,0,0,1,.438-.18,1.145,1.145,0,0,1,.528.064c.184.063.388.145.609.243s.463.2.722.293a4.062,4.062,0,0,0,.875.208l-.131-3.989q-.777-.111-1.555-.3a4.886,4.886,0,0,1-1.434-.587,3.675,3.675,0,0,1-1.124-1.1,4.2,4.2,0,0,1-.615-1.813,4.121,4.121,0,0,1,.122-1.654,4.386,4.386,0,0,1,.79-1.54,5.164,5.164,0,0,1,1.443-1.237,5.45,5.45,0,0,1,2.093-.685l-.04-1.189a.91.91,0,0,1,.191-.569.8.8,0,0,1,.563-.316l1.188-.155.061,2.079a6.237,6.237,0,0,1,2.026.418,7.274,7.274,0,0,1,1.506.814l-.64,1.261a1.39,1.39,0,0,1-.31.427.774.774,0,0,1-.417.177,1.159,1.159,0,0,1-.384-.024c-.146-.03-.307-.072-.482-.123l-.567-.163a5.14,5.14,0,0,0-.639-.139l.121,3.747q.519.081,1.042.187a8.782,8.782,0,0,1,1.016.27,5.659,5.659,0,0,1,.933.4,3.338,3.338,0,0,1,.789.6,3.132,3.132,0,0,1,.583.85,3.864,3.864,0,0,1,.321,1.151,5.217,5.217,0,0,1-.09,1.9,4.549,4.549,0,0,1-.778,1.665,5.112,5.112,0,0,1-1.441,1.3,6.476,6.476,0,0,1-2.079.8l.046,1.319a.885.885,0,0,1-.191.56.8.8,0,0,1-.563.313l-1.188.156Zm-1.947-11.118a1.342,1.342,0,0,0,.522.944,3.222,3.222,0,0,0,1.11.506l-.1-3.189a3.353,3.353,0,0,0-.779.32,1.732,1.732,0,0,0-.487.408,1.248,1.248,0,0,0-.24.482A1.46,1.46,0,0,0,5834.578,534.892Zm5.3,6.162a1.249,1.249,0,0,0-.505-.9,3.129,3.129,0,0,0-1.083-.462l.118,3.483A1.813,1.813,0,0,0,5839.883,541.054Z" transform="translate(-5831.541 -528.241)" fill="#ff6011"/>
  </g>
  <g id="Grupo_12" data-name="Grupo 12" transform="translate(21.613 18.897)">
    <path id="Trazado_54" data-name="Trazado 54" d="M5849.7,530.333a12.886,12.886,0,0,1-3.334-.55,9.618,9.618,0,0,1-2.8-1.335l1.136-2.214a1.423,1.423,0,0,1,.42-.479,1.293,1.293,0,0,1,.614-.251,1.609,1.609,0,0,1,.739.089q.39.135.854.34c.31.138.648.274,1.012.41a5.635,5.635,0,0,0,1.228.293l-.185-5.593q-1.091-.154-2.18-.414a6.853,6.853,0,0,1-2.009-.825,5.136,5.136,0,0,1-1.577-1.538,5.876,5.876,0,0,1-.861-2.541,5.762,5.762,0,0,1,.17-2.318,6.139,6.139,0,0,1,1.106-2.159,7.216,7.216,0,0,1,2.023-1.734,7.628,7.628,0,0,1,2.935-.959l-.055-1.669a1.265,1.265,0,0,1,.266-.8,1.114,1.114,0,0,1,.789-.444l1.666-.218.085,2.915a8.725,8.725,0,0,1,2.841.586,10.119,10.119,0,0,1,2.111,1.142l-.9,1.767a1.96,1.96,0,0,1-.434.6,1.091,1.091,0,0,1-.585.248,1.62,1.62,0,0,1-.539-.033c-.2-.042-.429-.1-.676-.172l-.795-.23a7.069,7.069,0,0,0-.9-.193l.169,5.252q.729.113,1.461.261a12.336,12.336,0,0,1,1.423.378,7.925,7.925,0,0,1,1.308.564,4.614,4.614,0,0,1,1.105.836,4.351,4.351,0,0,1,.818,1.193,5.373,5.373,0,0,1,.449,1.612,7.288,7.288,0,0,1-.125,2.669,6.367,6.367,0,0,1-1.089,2.335,7.19,7.19,0,0,1-2.021,1.818,9.042,9.042,0,0,1-2.914,1.118l.063,1.85a1.235,1.235,0,0,1-.269.785,1.124,1.124,0,0,1-.789.438l-1.666.218Zm-2.729-15.585a1.878,1.878,0,0,0,.731,1.322,4.484,4.484,0,0,0,1.558.71l-.142-4.469a4.725,4.725,0,0,0-1.093.448,2.425,2.425,0,0,0-.682.572,1.724,1.724,0,0,0-.334.675A2.016,2.016,0,0,0,5846.969,514.748Zm7.434,8.637a1.743,1.743,0,0,0-.707-1.259,4.362,4.362,0,0,0-1.52-.647l.165,4.882A2.54,2.54,0,0,0,5854.4,523.385Z" transform="translate(-5842.71 -505.425)" fill="#ff6011"/>
  </g>
</svg>
