<svg id="pattern" xmlns="http://www.w3.org/2000/svg" xmlns:xlink="http://www.w3.org/1999/xlink" width="1291" height="404.385" viewBox="0 0 1291 404.385">
  <defs>
    <clipPath id="clip-path">
      <rect id="Rectángulo_8" data-name="Rectángulo 8" width="1291" height="404.385" transform="translate(6509 -8)" fill="none"/>
    </clipPath>
  </defs>
  <g id="Grupo_2" data-name="Grupo 2" transform="translate(-6509 8)" clip-path="url(#clip-path)">
    <path id="Trazado_3" data-name="Trazado 3" d="M6932.3,46.382l-2.789-1.61,1.7-2.947a14.481,14.481,0,0,0-25.082-14.481l-2.143,3.712a14.469,14.469,0,0,0-9.772,26.779l20.809,12.014.052.03,2.742,1.583a14.48,14.48,0,1,0,14.48-25.08Zm-10.653,18.451L6918.9,63.25h0l-.047-.027-.006,0h0L6898.04,51.206a6.825,6.825,0,0,1,6.826-11.821l2.361,1.363.2-.351h0l5.327-9.227A6.825,6.825,0,1,1,6924.58,38l-3.618,6.264c-.006.009-.008.02-.013.029l-1.9,3.286,3.291,1.9c.007,0,.012.01.019.014l.022.01,6.083,3.512a6.825,6.825,0,1,1-6.824,11.822Z" fill="#2c019c"/>
    <path id="Trazado_4" data-name="Trazado 4" d="M7212.478,58l-2.876,1.449-1.531-3.04a14.481,14.481,0,1,0-25.864,13.032l1.929,3.828a14.469,14.469,0,0,0,17.034,22.857l21.458-10.812.054-.027,2.827-1.425A14.48,14.48,0,1,0,7212.478,58Zm9.587,19.026-2.828,1.424h0l-.048.025-.006,0h0l-21.458,10.812a6.825,6.825,0,1,1-6.141-12.19l2.434-1.228-.182-.361h0l-4.793-9.514a6.825,6.825,0,1,1,12.19-6.143l3.253,6.46c.005.01.013.018.018.028l1.707,3.387,3.394-1.709c.007,0,.014,0,.022-.009l.02-.013,6.273-3.16a6.825,6.825,0,1,1,6.144,12.189Z" fill="#2c019c"/>
    <path id="Trazado_5" data-name="Trazado 5" d="M7533.224-16.929l-.927,3.084-3.26-.98a14.386,14.386,0,0,0-11.026,1.118A14.386,14.386,0,0,0,7511-5.12a14.389,14.389,0,0,0,1.117,11.027,14.382,14.382,0,0,0,8.587,7.006l4.1,1.233a14.469,14.469,0,0,0,28.308,3.356l6.91-23.013.017-.058.911-3.031a14.5,14.5,0,0,0-9.706-18.034A14.5,14.5,0,0,0,7533.224-16.929Zm20.4,6.127-.91,3.032h0l-.016.051,0,.007h0L7545.79,15.3a6.825,6.825,0,1,1-13.072-3.927l.783-2.611-.388-.116v0l-10.2-3.064a6.781,6.781,0,0,1-4.047-3.3,6.78,6.78,0,0,1-.526-5.2,6.78,6.78,0,0,1,3.3-4.047,6.779,6.779,0,0,1,5.2-.527l6.927,2.082c.011,0,.022,0,.032.006l3.634,1.091,1.093-3.639a.206.206,0,0,1,.009-.022c0-.008,0-.016,0-.024l2.021-6.727a6.835,6.835,0,0,1,8.5-4.576A6.833,6.833,0,0,1,7553.628-10.8Z" fill="#2c019c"/>
    <path id="Trazado_6" data-name="Trazado 6" d="M6710.726-4.629l-.927,3.084-3.26-.98a14.481,14.481,0,0,0-16.915,20.732,14.382,14.382,0,0,0,8.587,7.006l4.1,1.233a14.469,14.469,0,0,0,28.308,3.356l6.91-23.013.017-.058.911-3.031a14.5,14.5,0,0,0-9.706-18.034A14.5,14.5,0,0,0,6710.726-4.629Zm20.4,6.127-.91,3.032h0l-.016.051,0,.007h0l-6.91,23.013a6.824,6.824,0,1,1-13.072-3.927l.783-2.611-.388-.116v0l-10.2-3.064a6.825,6.825,0,0,1,3.925-13.074l6.927,2.082c.011,0,.022,0,.032.006l3.634,1.091,1.093-3.639a.141.141,0,0,1,.009-.022c0-.008,0-.016,0-.024l2.021-6.727a6.835,6.835,0,0,1,8.5-4.576A6.833,6.833,0,0,1,6731.13,1.5Z" fill="#2c019c"/>
    <path id="Trazado_7" data-name="Trazado 7" d="M7142.874,11.455l-6.492-6.492-8.714,8.714-8.714-8.714-6.492,6.492,8.714,8.714-8.714,8.714,6.491,6.492,8.714-8.714,8.714,8.714,6.492-6.491-8.714-8.714Z" fill="#2c019c"/>
    <path id="Trazado_8" data-name="Trazado 8" d="M7622.447,131.717l2.449-8.848-11.877-3.287,3.287-11.877-8.849-2.449-3.287,11.877-11.877-3.287-2.449,8.848,11.877,3.287-3.287,11.877,8.848,2.449,3.287-11.877Z" fill="#2c019c"/>
    <path id="Trazado_9" data-name="Trazado 9" d="M6758.79,164.94l5.529-7.329-9.838-7.422,7.421-9.837-7.329-5.529-7.421,9.838-9.838-7.422-5.529,7.329,9.838,7.422-7.422,9.838,7.329,5.529,7.422-9.838Z" fill="#2c019c"/>
    <path id="Trazado_10" data-name="Trazado 10" d="M6802.625,62.677a6.88,6.88,0,0,1-1.245,9.464l-5.294,4.209a3.885,3.885,0,0,0-.5.319l-8.4,6.679a6.876,6.876,0,0,1-8.558-10.764l2.685-2.134h0l6.036-4.8h0l-1.117-1.4-1.27-1.6-.011-.017-.015-.015-4.4-5.542a6.876,6.876,0,1,1,10.763-8.559l2.022,2.545,6.037-4.8-2.023-2.544A14.588,14.588,0,1,0,6774.5,61.873l2.02,2.54-2.685,2.133a14.588,14.588,0,1,0,18.157,22.839l2.684-2.134,6.44,8.1,6.037-4.8-6.4-8.054,5.434-4.32a14.591,14.591,0,0,0,2.482-20.3Z" fill="#ff6011"/>
    <path id="Trazado_11" data-name="Trazado 11" d="M7631.794,30.556a5.736,5.736,0,0,1-1.148,7.876l-4.462,3.448a3.036,3.036,0,0,0-.418.26l-7.082,5.471a5.733,5.733,0,0,1-7.01-9.074l2.263-1.748h0l5.088-3.931h0l-.915-1.184-1.04-1.346-.009-.015-.012-.013-3.609-4.671a5.733,5.733,0,1,1,9.073-7.011l1.657,2.145,5.088-3.931-1.656-2.144a12.163,12.163,0,1,0-19.252,14.871l1.654,2.141-2.263,1.748A12.164,12.164,0,0,0,7622.615,52.7l2.263-1.748,5.275,6.828,5.089-3.931L7630,47.059l4.581-3.538a12.165,12.165,0,0,0,2.3-16.9Z" fill="#ff6011"/>
    <path id="Trazado_12" data-name="Trazado 12" d="M7056.017,55.083a11.914,11.914,0,0,0-8.85-14.159l-1.367,6.147a5.618,5.618,0,0,1,4.07,6.646l-1.2,5.39c-.018.045-.031.093-.046.139l-14.048-3.124-.016-.005-.017,0L7028.9,54.86a5.613,5.613,0,1,1,2.436-10.959l2.591.576,1.366-6.146-2.59-.577a11.91,11.91,0,0,0-5.171,23.252l2.586.575-.608,2.733a11.91,11.91,0,0,0,23.253,5.171l.607-2.733,8.437,1.876,1.366-6.146-8.389-1.866Zm-9.4,13.035a5.614,5.614,0,0,1-10.96-2.436l.608-2.734,10.96,2.437Z" fill="#ff6011"/>
    <path id="Trazado_13" data-name="Trazado 13" d="M6858.452,150.977a11.912,11.912,0,0,0,4.222-16.155l-5.408,3.226a5.62,5.62,0,0,1-2.039,7.522l-4.743,2.828c-.045.018-.088.042-.132.062l-7.371-12.36-.008-.015-.01-.014L6840,131.107a5.614,5.614,0,1,1,9.642-5.752l1.36,2.279,5.407-3.225-1.359-2.279a11.91,11.91,0,1,0-20.458,12.2l1.357,2.276-2.405,1.433a11.91,11.91,0,1,0,12.2,20.459l2.4-1.434,4.427,7.423,5.408-3.225-4.4-7.382Zm-15.93,2.113a5.614,5.614,0,0,1-5.752-9.643l2.406-1.434,5.751,9.643Z" fill="#ff6011"/>
    <path id="Trazado_14" data-name="Trazado 14" d="M6690.331,69.107a14.5,14.5,0,0,0-18.911,7.851l-1.231,2.977-3.145-1.3A14.48,14.48,0,0,0,6655.98,105.4l6.254,2.586-.022.053,10.334,4.273a14.484,14.484,0,0,0,18.811-7.633l-7.075-2.925a6.83,6.83,0,0,1-8.812,3.483l-6.2-2.565c-.05-.03-.1-.056-.157-.084l6.684-16.169.01-.018c0-.007,0-.014.006-.02l2.684-6.495a6.825,6.825,0,1,1,12.615,5.213l-1.232,2.982L6696.95,91l1.233-2.981A14.5,14.5,0,0,0,6690.331,69.107Zm-35.126,20.3a6.824,6.824,0,0,1,8.913-3.7l3.147,1.3-5.215,12.615-3.146-1.3a6.825,6.825,0,0,1-3.7-8.916Z" fill="#ff6011"/>
    <path id="Trazado_15" data-name="Trazado 15" d="M6546.659,232.447a11.91,11.91,0,0,0,9.6-13.663l-6.194,1.133a5.618,5.618,0,0,1-4.538,6.336l-5.432.994c-.048,0-.1.008-.146.012L6537.36,213.1l0-.018,0-.016-1.039-5.686a5.613,5.613,0,1,1,11.043-2.021l.478,2.611,6.193-1.133-.477-2.611a11.91,11.91,0,1,0-23.431,4.285l.476,2.606-2.754.5a11.911,11.911,0,0,0,4.286,23.433l2.753-.5,1.555,8.5,6.194-1.133-1.546-8.453Zm-15.665-3.585a5.614,5.614,0,0,1-2.02-11.045l2.755-.5,2.02,11.044Z" fill="#ff6011"/>
    <path id="Trazado_16" data-name="Trazado 16" d="M6595.491,229.986l1.678,2.749-2.906,1.773a14.481,14.481,0,0,0,15.087,24.721l2.906-1.774,5.351,8.769,6.534-3.988-5.321-8.719,5.883-3.59a14.482,14.482,0,0,0,4.931-19.692l-6.535,3.988a6.831,6.831,0,0,1-2.385,9.171l-5.73,3.5a3.706,3.706,0,0,0-.528.253l-9.094,5.55a6.825,6.825,0,0,1-7.112-11.652l2.907-1.773h0l6.534-3.988h0l-.928-1.52-1.055-1.729-.009-.019-.013-.016-3.661-6a6.825,6.825,0,0,1,11.651-7.112l1.681,2.755,6.534-3.988-1.681-2.754a14.48,14.48,0,1,0-24.72,15.086Z" fill="#2c019c"/>
    <path id="Trazado_17" data-name="Trazado 17" d="M7545.036,68.51a14.5,14.5,0,0,0-20.476,0l-2.278,2.277-2.406-2.408A14.481,14.481,0,0,0,7499.4,88.86l4.785,4.785-.041.042,7.907,7.907a14.483,14.483,0,0,0,20.3.161l-5.413-5.413a6.831,6.831,0,0,1-9.474-.161l-4.747-4.748c-.035-.047-.075-.091-.113-.137l12.372-12.372.016-.013c.005-.005.008-.011.013-.016l4.969-4.969a6.825,6.825,0,1,1,9.653,9.65l-2.281,2.282,5.413,5.413,2.281-2.281A14.5,14.5,0,0,0,7545.036,68.51Zm-40.224,5.284a6.825,6.825,0,0,1,9.65,0l2.407,2.408-9.652,9.652-2.407-2.407a6.824,6.824,0,0,1,0-9.653Z" fill="#ff6011"/>
    <path id="Trazado_18" data-name="Trazado 18" d="M7722.443,114.705a14.5,14.5,0,0,0-4.493,19.976l1.721,2.722-2.877,1.82a14.48,14.48,0,1,0,15.483,24.474L7738,160.08l.032.049,9.45-5.978a14.482,14.482,0,0,0,4.614-19.769l-6.47,4.092a6.831,6.831,0,0,1-2.237,9.208l-5.674,3.589c-.053.023-.106.053-.159.079l-9.353-14.786-.01-.018c0-.006-.009-.011-.012-.017l-3.757-5.938a6.825,6.825,0,1,1,11.534-7.3l1.725,2.727,6.469-4.093-1.725-2.726A14.5,14.5,0,0,0,7722.443,114.705Zm-3.675,40.4a6.825,6.825,0,0,1,2.118-9.416l2.878-1.819,7.3,11.535-2.877,1.82a6.823,6.823,0,0,1-9.416-2.12Z" fill="#ff6011"/>
    <path id="Trazado_19" data-name="Trazado 19" d="M7747.108,333.977A14.5,14.5,0,0,0,7760.04,318.1l-.327-3.2,3.387-.345a14.48,14.48,0,0,0-2.942-28.811l-6.732.687-.006-.058-11.125,1.136a14.482,14.482,0,0,0-12.947,15.636l7.616-.778a6.831,6.831,0,0,1,6.109-7.243l6.679-.682c.059,0,.118,0,.178,0l1.777,17.406a.137.137,0,0,0,0,.02.133.133,0,0,0,0,.021l.714,6.991a6.825,6.825,0,1,1-13.579,1.388l-.328-3.21-7.616.778.328,3.209A14.5,14.5,0,0,0,7747.108,333.977Zm21.31-34.522a6.826,6.826,0,0,1-6.095,7.482l-3.387.345-1.387-13.58,3.387-.345a6.822,6.822,0,0,1,7.482,6.1Z" fill="#ff6011"/>
    <path id="Trazado_20" data-name="Trazado 20" d="M7097.359,121.04a7.736,7.736,0,1,1-7.736,7.737,7.746,7.746,0,0,1,7.736-7.737m0-7.04a14.776,14.776,0,1,0,14.777,14.777A14.777,14.777,0,0,0,7097.359,114Z" fill="#ff6011"/>
    <path id="Trazado_21" data-name="Trazado 21" d="M7292.475,114.975a7.736,7.736,0,1,1-7.736,7.736,7.745,7.745,0,0,1,7.736-7.736m0-7.04a14.776,14.776,0,1,0,14.777,14.776,14.776,14.776,0,0,0-14.777-14.776Z" fill="#ff6011"/>
    <path id="Trazado_22" data-name="Trazado 22" d="M7539.15,174.621a7.736,7.736,0,1,1-7.736,7.737,7.746,7.746,0,0,1,7.736-7.737m0-7.04a14.777,14.777,0,1,0,14.777,14.777,14.777,14.777,0,0,0-14.777-14.777Z" fill="#ff6011"/>
    <path id="Trazado_23" data-name="Trazado 23" d="M6667.007,182.576a7.736,7.736,0,1,1-7.736,7.736,7.745,7.745,0,0,1,7.736-7.736m0-7.04a14.776,14.776,0,1,0,14.776,14.776,14.776,14.776,0,0,0-14.776-14.776Z" fill="#ff6011"/>
    <path id="Trazado_24" data-name="Trazado 24" d="M6587.141,297.826a7.736,7.736,0,1,1-7.736,7.736,7.744,7.744,0,0,1,7.736-7.736m0-7.041a14.777,14.777,0,1,0,14.776,14.777,14.776,14.776,0,0,0-14.776-14.777Z" fill="#ff6011"/>
    <path id="Trazado_25" data-name="Trazado 25" d="M6609.382,136.071a7.737,7.737,0,1,1-7.736,7.737,7.745,7.745,0,0,1,7.736-7.737m0-7.04a14.776,14.776,0,1,0,14.776,14.777,14.777,14.777,0,0,0-14.776-14.777Z" fill="#2c019c"/>
    <path id="Trazado_26" data-name="Trazado 26" d="M7739.065,210.883a7.736,7.736,0,1,1-7.736,7.736,7.745,7.745,0,0,1,7.736-7.736m0-7.04a14.776,14.776,0,1,0,14.777,14.776,14.776,14.776,0,0,0-14.777-14.776Z" fill="#ff6011"/>
    <path id="Trazado_27" data-name="Trazado 27" d="M7800.056,163.912a10.557,10.557,0,1,1-10.557,10.557,10.568,10.568,0,0,1,10.557-10.557m0-9.607a20.164,20.164,0,1,0,20.163,20.164,20.164,20.164,0,0,0-20.163-20.164Z" fill="#2c019c"/>
    <path id="Trazado_28" data-name="Trazado 28" d="M6524.661,350.528a10.556,10.556,0,1,1-10.556,10.557,10.568,10.568,0,0,1,10.556-10.557m0-9.607a20.163,20.163,0,1,0,20.164,20.164,20.164,20.164,0,0,0-20.164-20.164Z" fill="#2c019c"/>
    <path id="Trazado_29" data-name="Trazado 29" d="M6513.61,283.312a7.946,7.946,0,1,1-7.946,7.947,7.956,7.956,0,0,1,7.946-7.947m0-7.231a15.178,15.178,0,1,0,15.178,15.178,15.178,15.178,0,0,0-15.178-15.178Z" fill="#2c019c"/>
    <rect id="Rectángulo_3" data-name="Rectángulo 3" width="28.206" height="7.655" transform="translate(6550.342 84.113) rotate(-7.492)" fill="#2c019c"/>
    <rect id="Rectángulo_4" data-name="Rectángulo 4" width="28.206" height="7.655" transform="matrix(0.793, -0.609, 0.609, 0.793, 7402.536, 111.835)" fill="#2c019c"/>
    <rect id="Rectángulo_5" data-name="Rectángulo 5" width="7.655" height="28.206" transform="translate(7652.901 181.628) rotate(-60.896)" fill="#2c019c"/>
    <rect id="Rectángulo_6" data-name="Rectángulo 6" width="28.206" height="7.655" transform="matrix(0.683, -0.731, 0.731, 0.683, 7712.284, 75.563)" fill="#2c019c"/>
    <rect id="Rectángulo_7" data-name="Rectángulo 7" width="7.655" height="28.206" transform="translate(7766.925 383.499) rotate(-51.177)" fill="#2c019c"/>
    <path id="Trazado_30" data-name="Trazado 30" d="M7374.066,33.906l0,0-4.856,2.888,15.413,25.918.047.084c.017.028.035.055.053.083l2.3,3.876,7.921-4.709h0l3.523-2.094a17.431,17.431,0,0,0-17.82-29.963Zm17.515,3.105a8.216,8.216,0,0,1,2.177,15.024l-3.523,2.094-8.4-14.122,3.521-2.1A8.159,8.159,0,0,1,7391.581,37.011Z" fill="#2c019c"/>
    <path id="Trazado_31" data-name="Trazado 31" d="M7319.714,50.792v0l-.162-4.05-21.618.865h-.069l-.07.005-3.233.129.263,6.606h0l.117,2.938a12.506,12.506,0,0,0,24.992-1Zm-7.945,9.987a5.895,5.895,0,0,1-10.221-3.761l-.117-2.939,11.779-.471.118,2.938A5.855,5.855,0,0,1,7311.769,60.779Z" fill="#2c019c"/>
    <path id="Trazado_32" data-name="Trazado 32" d="M7001.794,130.457l0,0,5.017-2.6-13.872-26.775c-.014-.029-.027-.058-.042-.087s-.031-.057-.047-.086l-2.074-4-8.183,4.237h0l-3.639,1.885A17.431,17.431,0,0,0,6995,133.98Zm-17.3-4.124a8.216,8.216,0,0,1-1.3-15.125l3.64-1.885,7.558,14.59-3.638,1.885A8.163,8.163,0,0,1,6984.491,126.333Z" fill="#2c019c"/>
    <path id="Trazado_33" data-name="Trazado 33" d="M6554.48,2.793h0l-5.631.466,2.486,30.052c0,.032,0,.064.006.1s.007.066.01.1l.372,4.494,9.184-.757h0l4.084-.337a17.431,17.431,0,0,0,9.829-30.671,17.316,17.316,0,0,0-12.705-4.072Zm14.379,10.471a8.217,8.217,0,0,1-4.632,14.458l-4.084.337-1.355-16.376,4.084-.337A8.156,8.156,0,0,1,6568.859,13.264Z" fill="#2c019c"/>
    <path id="Trazado_34" data-name="Trazado 34" d="M6641.143,22.634l0-.005,2.557-5.038L6616.813,3.943l-.085-.046-.089-.042-4.021-2.041-4.173,8.216h0l-1.855,3.654a17.43,17.43,0,1,0,31.086,15.778Zm-16.458,6.748a8.216,8.216,0,0,1-9.878-11.527l1.856-3.654,14.652,7.436-1.855,3.654A8.16,8.16,0,0,1,6624.685,29.382Z" fill="#ff6011"/>
    <path id="Trazado_35" data-name="Trazado 35" d="M7476.411,24.167v0l1.335-5.49-29.3-7.122c-.031-.008-.062-.018-.093-.025l-.1-.021-4.382-1.065-2.179,8.953h0l-.968,3.981a17.431,17.431,0,0,0,33.875,8.233Zm-14.472,10.342a8.216,8.216,0,0,1-12.258-8.957l.969-3.982,15.966,3.88-.967,3.982A8.165,8.165,0,0,1,7461.939,34.509Z" fill="#ff6011"/>
    <path id="Trazado_36" data-name="Trazado 36" d="M7677.5-3.777l0,0-4.856,2.888,15.414,25.918c.016.028.03.056.047.084s.035.055.052.083l2.305,3.876,7.921-4.708h0l3.522-2.094a17.312,17.312,0,0,0,7.984-10.688,17.321,17.321,0,0,0-1.912-13.2,17.432,17.432,0,0,0-23.892-6.073Zm17.514,3.1a8.218,8.218,0,0,1,5.94,9.987,8.162,8.162,0,0,1-3.762,5.037l-3.523,2.094-8.4-14.122,3.522-2.095A8.16,8.16,0,0,1,7695.01-.672Z" fill="#2c019c"/>
  </g>
</svg>
