<svg id="Componente_22_2" data-name="Componente 22 – 2" xmlns="http://www.w3.org/2000/svg" width="49.852" height="60.519" viewBox="0 0 49.852 60.519">
  <path id="Trazado_68" data-name="Trazado 68" d="M4680.216,517.241a4.058,4.058,0,0,1-2.877,1.191h-11.325a15.393,15.393,0,0,1,0-30.785l7.69,0a4.069,4.069,0,1,1,0,8.137l-7.689,0a7.256,7.256,0,0,0,0,14.511h11.324a4.069,4.069,0,0,1,2.878,6.946Z" transform="translate(-4650.622 -468.832)" fill="#ff6011"/>
  <path id="Trazado_69" data-name="Trazado 69" d="M4692.336,503.358a7.259,7.259,0,0,1-7.242,7h-11.886v8.138H4685.1a15.393,15.393,0,0,0,15.379-15.137Z" transform="translate(-4650.622 -468.832)" fill="#ff6011"/>
  <rect id="Rectángulo_27" data-name="Rectángulo 27" width="8.137" height="18.322" transform="translate(19.01 42.198)" fill="#ff6011"/>
  <path id="Trazado_70" data-name="Trazado 70" d="M4669.633,484.224v9.668h8.137v-9.666a7.254,7.254,0,1,1,14.509,0v3.43h8.138v-3.429a15.392,15.392,0,1,0-30.784,0Z" transform="translate(-4650.622 -468.832)" fill="#ff6011"/>
  <path id="Trazado_71" data-name="Trazado 71" d="M4669.632,495.786h8.138v-1.894h-8.137Z" transform="translate(-4650.622 -468.832)" fill="#ff6011"/>
</svg>
