<svg id="microsoft" xmlns="http://www.w3.org/2000/svg" width="63.136" height="79.633" viewBox="0 0 63.136 79.633">
  <path id="Trazado_99" data-name="Trazado 99" d="M3408.96,544.512c0,4.829.016,9.659-.006,14.488-.015,3.45-1.731,4.879-5.1,4.171q-11.946-2.511-23.873-5.114c-2.363-.512-3.325-1.751-3.33-4.24q-.024-12.042,0-24.086c.007-2.988,1.317-4.277,4.337-4.283q11.774-.024,23.547,0c3.119.006,4.406,1.291,4.417,4.4C3408.972,534.733,3408.96,539.622,3408.96,544.512Z" transform="translate(-3345.831 -483.714)" fill="#ff6011"/>
  <path id="Trazado_100" data-name="Trazado 100" d="M3408.959,502.781c0,4.835.015,9.67,0,14.5-.012,3.015-1.269,4.326-4.3,4.34q-11.879.054-23.755,0c-3.008-.015-4.24-1.334-4.245-4.387q-.021-11.966,0-23.932c0-2.589.9-3.746,3.467-4.307q11.938-2.613,23.9-5.137c3.071-.647,4.913.884,4.933,4.054C3408.982,492.869,3408.959,497.825,3408.959,502.781Z" transform="translate(-3345.831 -483.714)" fill="#ff6011"/>
  <path id="Trazado_101" data-name="Trazado 101" d="M3372.843,541.247c0,3.683.024,7.368-.007,11.051-.031,3.662-1.766,5.041-5.34,4.274q-9.023-1.934-18.038-3.9c-2.653-.575-3.607-1.7-3.614-4.373q-.026-9.24,0-18.48c.008-3.1,1.3-4.368,4.441-4.375q9.06-.023,18.12,0c3.133.008,4.4,1.245,4.429,4.386C3372.871,533.637,3372.842,537.442,3372.843,541.247Z" transform="translate(-3345.831 -483.714)" fill="#ff6011"/>
  <path id="Trazado_102" data-name="Trazado 102" d="M3372.841,506c0,3.744.029,7.489-.007,11.233-.03,3.13-1.275,4.379-4.416,4.4q-9.06.048-18.12,0c-3.238-.016-4.451-1.283-4.457-4.548q-.015-9.06,0-18.118c0-2.91.9-4,3.774-4.622q9.108-1.965,18.223-3.9c3.067-.65,4.936.8,4.987,3.966C3372.888,498.269,3372.84,502.135,3372.841,506Z" transform="translate(-3345.831 -483.714)" fill="#ff6011"/>
</svg>
