<svg id="Layer_1" data-name="Layer 1" xmlns="http://www.w3.org/2000/svg" viewBox="0 0 58.22 61.33"><defs><style>.cls-1{fill:#f26222;}</style></defs><g id="Grupo_48" data-name="Grupo 48"><path id="Trazado_148" data-name="Trazado 148" class="cls-1" d="M24.84,55.79h0a14,14,0,0,1-9.9-23.89l4.8-4.8a4,4,0,0,1,5.64,5.65h0l-4.8,4.8A6,6,0,0,0,24.83,47.8h0A5.93,5.93,0,0,0,29.08,46L36.15,39a4,4,0,0,1,5.65,5.65l-7.07,7.07A13.91,13.91,0,0,1,24.84,55.79Z"/></g><path id="Trazado_154" data-name="Trazado 154" class="cls-1" d="M41.2,25.83A6,6,0,0,1,41,34.17l-7.71,7.7L39,47.52l7.71-7.71a14,14,0,0,0,.15-19.63Z"/><path id="Trazado_155" data-name="Trazado 155" class="cls-1" d="M20.71,13.92a6,6,0,0,1,8.5,0l2.14,2.14L37,10.42,34.85,8.27a14,14,0,0,0-19.79,19.8h0L43.68,56.69,49.33,51,20.71,22.42A6,6,0,0,1,20.71,13.92Z"/></svg>