<svg id="Layer_1" data-name="Layer 1" xmlns="http://www.w3.org/2000/svg" viewBox="0 0 58.22 61.33"><defs><style>.cls-1{fill:#f26222;}</style></defs><path id="Trazado_61" data-name="Trazado 61" class="cls-1" d="M42.31,42.33a3.66,3.66,0,0,1-1.05,2.6l-7.18,7.3A13.91,13.91,0,0,1,14.26,32.71l4.87-4.95a3.68,3.68,0,1,1,5.24,5.16h0L19.5,37.87a6.56,6.56,0,1,0,9.34,9.2L36,39.78a3.68,3.68,0,0,1,6.3,2.55Z"/><path id="Trazado_62" data-name="Trazado 62" class="cls-1" d="M19.43,13.7a6.57,6.57,0,0,1,9.27-.07l2.21,2.17,5.16-5.23L33.86,8.39A13.91,13.91,0,1,0,14.31,28.18l0,0,18.9,18.6,5.46-4.93L19.5,23A6.58,6.58,0,0,1,19.43,13.7Z"/><path id="Trazado_63" data-name="Trazado 63" class="cls-1" d="M41.06,25.72a6.56,6.56,0,0,1-.09,9.1l-7.53,7.65,5.24,5.16L46.21,40a13.91,13.91,0,0,0,0-19.5Z"/></svg>