<svg id="Layer_1" data-name="Layer 1" xmlns="http://www.w3.org/2000/svg" viewBox="0 0 58.22 61.33"><defs><style>.cls-1{fill:#373393;}</style></defs><path id="Trazado_72" data-name="Trazado 72" class="cls-1" d="M38,45.17,30.63,52.3A13.95,13.95,0,0,1,11.25,32.24h0l5-4.84a3.68,3.68,0,0,1,5.19,5.23l-.07.07-5,4.84A6.58,6.58,0,0,0,25.51,47l7.38-7.13Z"/><path id="Trazado_73" data-name="Trazado 73" class="cls-1" d="M16.91,13.32a6.58,6.58,0,0,1,9.3.16l2.16,2.23,5.3-5.12L31.51,8.35A13.95,13.95,0,0,0,11.45,27.73l7.28,7.53L24,30.14l-7.28-7.52A6.59,6.59,0,0,1,16.91,13.32Z"/><path id="Trazado_74" data-name="Trazado 74" class="cls-1" d="M44.29,41.65a6.59,6.59,0,0,0,.16-9.3L28.33,15.67l5.3-5.12L49.75,27.23A13.95,13.95,0,0,1,29.69,46.61h0l-1.82-1.89,5.29-5.12L35,41.49A6.6,6.6,0,0,0,44.29,41.65Z"/></svg>