<svg id="Componente_24_2" data-name="Componente 24 – 2" xmlns="http://www.w3.org/2000/svg" width="60.52" height="49.852" viewBox="0 0 60.52 49.852">
  <path id="Trazado_64" data-name="Trazado 64" d="M4385.558,503.759a4.051,4.051,0,0,1-1.192-2.877V489.558a15.392,15.392,0,0,1,30.785,0l0,7.691a4.068,4.068,0,1,1-8.137,0l0-7.689a7.256,7.256,0,0,0-14.511,0v11.325a4.068,4.068,0,0,1-6.945,2.877Z" transform="translate(-4373.446 -474.166)" fill="#ff6011"/>
  <path id="Trazado_65" data-name="Trazado 65" d="M4399.441,515.88a7.26,7.26,0,0,1-7-7.242V496.751H4384.3v11.887a15.394,15.394,0,0,0,15.137,15.38Z" transform="translate(-4373.446 -474.166)" fill="#ff6011"/>
  <rect id="Rectángulo_26" data-name="Rectángulo 26" width="18.322" height="8.137" transform="translate(0 19.01)" fill="#ff6011"/>
  <path id="Trazado_66" data-name="Trazado 66" d="M4418.574,493.176h-9.668v8.137h9.666a7.255,7.255,0,1,1,0,14.51h-3.43v8.137h3.429a15.392,15.392,0,1,0,0-30.784Z" transform="translate(-4373.446 -474.166)" fill="#ff6011"/>
  <path id="Trazado_67" data-name="Trazado 67" d="M4407.012,493.176h0v8.137h1.894v-8.137Z" transform="translate(-4373.446 -474.166)" fill="#ff6011"/>
</svg>
