<svg id="Componente_23_2" data-name="Componente 23 – 2" xmlns="http://www.w3.org/2000/svg" width="64.352" height="53.624" viewBox="0 0 64.352 53.624">
  <path id="Trazado_72" data-name="Trazado 72" d="M4902.494,498.342v-12.2a16.576,16.576,0,0,1,33.153,0l0,8.281a4.382,4.382,0,1,1-8.763,0l0-8.28a7.813,7.813,0,0,0-15.627,0v12.2Z" transform="translate(-4891.557 -469.57)" fill="#ff6011"/>
  <path id="Trazado_73" data-name="Trazado 73" d="M4947.146,506.617a7.822,7.822,0,0,1-7.813,7.814h-3.694v8.763h3.693a16.575,16.575,0,1,0,0-33.151h-12.447V498.8h12.445A7.826,7.826,0,0,1,4947.146,506.617Z" transform="translate(-4891.557 -469.57)" fill="#ff6011"/>
  <path id="Trazado_74" data-name="Trazado 74" d="M4900.321,506.617a7.822,7.822,0,0,0,7.812,7.814h27.576v8.763h-27.575a16.575,16.575,0,1,1,0-33.151h3.123V498.8h-3.121A7.825,7.825,0,0,0,4900.321,506.617Z" transform="translate(-4891.557 -469.57)" fill="#ff6011"/>
</svg>
