<svg id="Layer_1" data-name="Layer 1" xmlns="http://www.w3.org/2000/svg" viewBox="0 0 564.59 311.98"><defs><style>.cls-1{fill:#f26222;}</style></defs><path id="Trazado_105" data-name="Trazado 105" class="cls-1" d="M382.64,303.13a19,19,0,0,1-13.49-9.89,26,26,0,0,1-2.22-9.93c-.26-12.12-.1-24.26-.1-36.38v-3.65c-4.08,0-7.89,0-11.69,0a11.29,11.29,0,0,1-12.82-12.48q-.07-58.63,0-117.25c0-.46.06-.93.1-1.61H489.52c.05.92.14,1.83.14,2.73,0,38.34,0,76.67-.09,115a19.87,19.87,0,0,1-2.13,8.74,10,10,0,0,1-9.19,4.78c-4.2.11-8.4,0-12.93,0-.07,1.27-.19,2.33-.19,3.4,0,11.39-.29,22.77.08,34.14.36,10.92-3.66,19-15.9,22.36h-5.17c-12.2-3.28-16.31-11.44-16-22.28.36-11.46.09-22.93.08-34.39,0-1-.09-2-.15-3H403.71V247c0,12,.17,24-.1,36.07a27,27,0,0,1-2.28,10.19,18.83,18.83,0,0,1-13.52,9.85Z"/><path id="Trazado_106" data-name="Trazado 106" class="cls-1" d="M461.15,42.2a69.63,69.63,0,0,1,30.6,57.29H344.22a69.71,69.71,0,0,1,30.69-57.37c-1.81-1.74-3.57-3.39-5.29-5.07-3.58-3.49-7.25-6.91-10.7-10.54a5.71,5.71,0,0,1,.29-8.22,6.1,6.1,0,0,1,8.06-.08,21.94,21.94,0,0,1,1.9,1.7c4.61,4.47,9.26,8.91,13.79,13.46a3.23,3.23,0,0,0,4.16.89,78.17,78.17,0,0,1,61.82,0,3,3,0,0,0,3.9-.78c4.8-4.82,9.72-9.53,14.62-14.25a6.69,6.69,0,0,1,6.34-2.46A5.82,5.82,0,0,1,476.58,27c-4.36,4.45-8.92,8.75-13.38,13.08Zm-73.9,36.53a9,9,0,0,0,9.13-8.8v-.07a9.15,9.15,0,0,0-18.3-.32v.36a9,9,0,0,0,9.14,8.83Zm61.45,0a9,9,0,0,0,9.17-8.8v0a9.15,9.15,0,0,0-18.29-.4c0,.12,0,.25,0,.37a9,9,0,0,0,9.07,8.86Z"/><path id="Trazado_107" data-name="Trazado 107" class="cls-1" d="M331.89,171.59c0,13.62.06,27.23,0,40.84a18.45,18.45,0,0,1-36.84,1.68,17.05,17.05,0,0,1,0-2.26q-.06-40.28,0-80.56a28.24,28.24,0,0,1,.33-3.9,18.6,18.6,0,0,1,18.71-15.66,18.21,18.21,0,0,1,17.63,17.07c.28,14.26.07,28.51.07,42.79Z"/><path id="Trazado_108" data-name="Trazado 108" class="cls-1" d="M504.06,171.43c0-13.61,0-27.23,0-40.84a18.27,18.27,0,0,1,12.34-17.76,18.48,18.48,0,0,1,23.38,11,17.58,17.58,0,0,1,1,6.26c.23,27.6.16,55.2,0,82.8a18.09,18.09,0,0,1-18,18.24,18.29,18.29,0,0,1-18.19-13.57,23.92,23.92,0,0,1-.6-6.08C504,198.1,504.06,184.76,504.06,171.43Z"/><path id="Trazado_103" data-name="Trazado 103" class="cls-1" d="M102.65,312H96.1a50,50,0,0,1-17.92-7.51,101.24,101.24,0,0,1-26.62-28.22A196,196,0,0,1,18.24,175.84c-1.49-29.26,7.07-54.86,28.61-75.4a62.82,62.82,0,0,1,59.73-17.12,134.64,134.64,0,0,1,22,8A34.32,34.32,0,0,0,155,92.53c4.36-1.65,8.79-3.13,13-5.08a72.07,72.07,0,0,1,45.27-5.53C232,85.59,246,96.23,257.87,110.62c-20.91,15.89-35.53,35.06-32.17,62.64a69.55,69.55,0,0,0,41.47,57.79c-3.6,8-6.95,16.09-10.74,23.92-8.63,17.81-18.47,34.67-35.11,46.55-6.17,4.4-12,9-19.73,10.46h-5.35c-9.19-3-18.53-5.63-27.51-9.14a48.9,48.9,0,0,0-34.54-1.31C123.68,305.06,113.16,308.5,102.65,312Z"/><path id="Trazado_104" data-name="Trazado 104" class="cls-1" d="M201.59,6.87c.22,4.05.61,8.1.64,12.15.15,22.86-10.7,38.75-30.9,48.8a90.91,90.91,0,0,1-26.2,8.51c-.56.09-1.14.11-2,.18-.45-21.62,4.41-40.7,23-54.07a94.44,94.44,0,0,1,32.5-15,7.42,7.42,0,0,0,1.27-.61Z"/></svg>