<svg id="android" xmlns="http://www.w3.org/2000/svg" width="62.988" height="75.353" viewBox="0 0 62.988 75.353">
  <path id="Trazado_105" data-name="Trazado 105" d="M2819.959,562.646a4.877,4.877,0,0,1-3.456-2.6,7.027,7.027,0,0,1-.567-2.614c-.066-3.188-.026-6.379-.026-9.568v-.96c-1.046,0-2.021.009-2.995,0a2.96,2.96,0,0,1-3.283-3.283q-.018-15.42-.005-30.839c0-.122.015-.244.026-.424h37.681c.012.243.034.481.034.719,0,10.083.013,20.166-.022,30.249a5.327,5.327,0,0,1-.545,2.3,2.531,2.531,0,0,1-2.353,1.258c-1.076.029-2.152.007-3.313.007-.019.333-.048.614-.048.895,0,2.994-.076,5.989.019,8.979.092,2.872-.937,4.986-4.07,5.88h-1.325c-3.124-.862-4.178-3.008-4.092-5.859.09-3.013.021-6.03.018-9.045,0-.26-.023-.52-.036-.785h-6.245v.932c0,3.162.042,6.325-.026,9.486a7.277,7.277,0,0,1-.584,2.682,4.832,4.832,0,0,1-3.462,2.589Z" transform="translate(-2797.012 -487.293)" fill="#ff6011"/>
  <path id="Trazado_106" data-name="Trazado 106" d="M2839.554,494.015a18.456,18.456,0,0,1,7.839,15.068h-37.787a18.472,18.472,0,0,1,7.862-15.089c-.465-.457-.914-.892-1.355-1.333-.919-.92-1.859-1.819-2.741-2.772a1.53,1.53,0,0,1,2.138-2.185,5.391,5.391,0,0,1,.486.448c1.181,1.176,2.373,2.343,3.534,3.54a.807.807,0,0,0,1.063.233,19.546,19.546,0,0,1,15.834.007.764.764,0,0,0,1-.206c1.228-1.268,2.489-2.505,3.743-3.748a1.692,1.692,0,0,1,1.624-.647,1.546,1.546,0,0,1,.712,2.689c-1.116,1.171-2.283,2.3-3.426,3.44C2839.915,493.63,2839.752,493.807,2839.554,494.015Zm-18.926,9.607a2.326,2.326,0,0,0,2.338-2.331,2.344,2.344,0,1,0-4.687.01A2.331,2.331,0,0,0,2820.628,503.622Zm15.739,0a2.331,2.331,0,0,0,2.349-2.322,2.344,2.344,0,1,0-4.687-.008A2.326,2.326,0,0,0,2836.367,503.622Z" transform="translate(-2797.012 -487.293)" fill="#ff6011"/>
  <path id="Trazado_107" data-name="Trazado 107" d="M2806.449,528.049c0,3.58.014,7.161,0,10.742a4.723,4.723,0,1,1-9.426-.154q-.015-10.595,0-21.19a7.478,7.478,0,0,1,.085-1.024,4.8,4.8,0,0,1,4.791-4.119,4.721,4.721,0,0,1,4.516,4.488c.073,3.751.019,7.5.019,11.257Z" transform="translate(-2797.012 -487.293)" fill="#ff6011"/>
  <path id="Trazado_108" data-name="Trazado 108" d="M2850.546,528.006c0-3.581-.012-7.162,0-10.743a4.8,4.8,0,0,1,3.159-4.67,4.7,4.7,0,0,1,6.252,4.529c.06,7.259.042,14.519.006,21.779a4.7,4.7,0,0,1-9.261,1.228,6.481,6.481,0,0,1-.154-1.6C2850.54,535.02,2850.546,531.513,2850.546,528.006Z" transform="translate(-2797.012 -487.293)" fill="#ff6011"/>
</svg>
