<svg id="Componente_25_2" data-name="Componente 25 – 2" xmlns="http://www.w3.org/2000/svg" width="57.523" height="44.313" viewBox="0 0 57.523 44.313">
  <path id="Trazado_61" data-name="Trazado 61" d="M4112.919,517.964a4.058,4.058,0,0,1-2.877-1.192l-8.008-8.007A15.393,15.393,0,0,1,4123.8,487l5.437,5.439a4.068,4.068,0,1,1-5.755,5.752l-5.436-5.438a7.255,7.255,0,0,0-10.26,10.261l8.008,8.008a4.069,4.069,0,0,1-2.877,6.946Z" transform="translate(-4097.526 -482.488)" fill="#ff6011"/>
  <path id="Trazado_62" data-name="Trazado 62" d="M4144.794,492.887a7.265,7.265,0,0,1,0,10.261l-2.425,2.425,5.754,5.754,2.425-2.425a15.392,15.392,0,1,0-21.767-21.768l-20.746,20.746,5.413,6.094,21.085-21.084A7.266,7.266,0,0,1,4144.794,492.887Z" transform="translate(-4097.526 -482.488)" fill="#ff6011"/>
  <path id="Trazado_63" data-name="Trazado 63" d="M4131.306,516.718a7.259,7.259,0,0,1-10.07-.172l-8.4-8.405-5.754,5.754,8.4,8.406a15.394,15.394,0,0,0,21.579.171Z" transform="translate(-4097.526 -482.488)" fill="#ff6011"/>
</svg>
